<?xml version="1.0" encoding="utf-8"?>
<!-- Generator: Adobe Illustrator 23.0.0, SVG Export Plug-In . SVG Version: 6.00 Build 0)  -->
<svg version="1.1" xmlns="http://www.w3.org/2000/svg" xmlns:xlink="http://www.w3.org/1999/xlink" x="0px" y="0px"
	 viewBox="0 0 1568 512" style="enable-background:new 0 0 1568 512;" xml:space="preserve">
<style type="text/css">
	.st0{fill:#B7EABC;}
	.st1{fill:#EF603F;}
</style>
<g id="Layer_2">
	<rect x="765.9" y="213.9" class="st0" width="87.4" height="128.5"/>
	<rect x="1159" y="219.8" class="st0" width="87.4" height="128.5"/>
	<path id="XMLID_626_" d="M1093.1,182.7c-10.7,0-19.3,8.6-19.3,19.3v138.9c0,10.7,8.6,19.3,19.3,19.3s19.3-8.6,19.3-19.3V202
		C1112.4,191.4,1103.8,182.7,1093.1,182.7z"/>
	<path id="XMLID_1033_" d="M1022.1,184c-10.1-3.4-21,2.1-24.4,12.2l-30.3,91.3l-31.9-91.8c-3.5-10.1-14.5-15.4-24.5-11.9
		c-10.1,3.5-15.4,14.5-11.9,24.5l47.5,136.9c3.2,8.9,11.7,14.9,21.1,14.9h0.1c9.5-0.1,18-6.2,21.1-15.3l45.3-136.5
		C1037.6,198.2,1032.2,187.3,1022.1,184L1022.1,184z"/>
	<path id="XMLID_1036_" d="M807.8,182.9c-36.9,0-67,30-67,67v43.3c0,36.9,30,67,67,67s67-30,67-67v-43.3
		C874.8,212.9,844.8,182.9,807.8,182.9L807.8,182.9z M836.3,293.2c0,15.7-12.7,28.4-28.4,28.4c-15.7,0-28.4-12.7-28.4-28.4v-43.3
		c0-15.7,12.7-28.4,28.4-28.4c15.7,0,28.4,12.7,28.4,28.4V293.2z"/>
	<path id="XMLID_1037_" class="st1" d="M1359.1,182.7h-24.4c-10.7,0-19.3,8.6-19.3,19.3c0,10.7,8.6,19.3,19.3,19.3h5.1v119.6
		c0,10.7,8.6,19.3,19.3,19.3s19.3-8.6,19.3-19.3V202C1378.4,191.4,1369.7,182.7,1359.1,182.7z"/>
	<path id="XMLID_1040_" class="st1" d="M1542.2,243.3c0-32.8-26.7-59.4-59.4-59.4c-32.8,0-59.4,26.7-59.4,59.4
		c0,32.5,26.2,58.9,58.5,59.4c-10.1,14.4-20,22.1-20.3,22.4c-8.5,6.4-10.2,18.4-3.9,26.9c3.8,5.1,9.6,7.8,15.5,7.8
		c4,0,8-1.2,11.5-3.8c2-1.5,48.7-36.9,56.9-103.3C1542,249.6,1542.2,246.5,1542.2,243.3z M1461.9,243.3c0-11.5,9.4-20.9,20.9-20.9
		c11.5,0,20.9,9.4,20.9,20.9c0,11.5-9.4,20.9-20.9,20.9C1471.3,264.2,1461.9,254.8,1461.9,243.3z"/>
	<path id="XMLID_1065_" d="M1201.5,182.7h-31.2c-5.1,0-10,2-13.6,5.7c-3.6,3.6-5.6,8.5-5.6,13.7v138.9c0,5.1,2.4,10,6,13.6
		c3.6,3.6,8.5,5.6,13.6,5.6h0.1c0.9,0,21.1-0.1,32.3-0.3c42.8-0.7,73.9-37.9,73.9-88.4C1276.9,218.4,1246.6,182.7,1201.5,182.7
		L1201.5,182.7z M1202.3,321.3c-3.5,0.1-8,0.1-12.6,0.2c-0.1-16.3-0.2-83.2-0.2-100.1h11.9c34.1,0,36.8,38.4,36.8,50.1
		C1238.3,295.9,1227.2,320.8,1202.3,321.3z"/>
	<path d="M694,314.1c-7.2-7.9-19.4-8.5-27.2-1.3v0c-6.4,5.8-14.7,8.8-24.5,8.8c-27,0-48.9-22.5-48.9-50.1s21.9-50.1,48.9-50.1
		c8.5,0,16.9,2.3,24.3,6.6c9.2,5.4,21,2.3,26.4-6.8c3.7-6.3,3.4-13.9-0.1-19.7c-0.1,0.1-0.2,0.3-0.2,0.2c-4.1-7-27.2-18.9-50.4-18.9
		c-48.2,0-87.5,39.8-87.5,88.7c0,48.9,39.2,88.7,87.5,88.7c19.4,0,36.8-6.5,50.4-18.8C700.5,334.2,701.1,322,694,314.1z"/>
	<path id="XMLID_15_" d="M675.8,199c1.8,0,3.5-0.7,4.8-2c1.3-1.3,2-3,2-4.8c0-1.8-0.7-3.5-2-4.8c-1.3-1.3-3-2-4.8-2s-3.5,0.7-4.8,2
		s-2,3-2,4.8c0,1.8,0.7,3.5,2,4.8C672.2,198.2,674,199,675.8,199z"/>
	<path id="XMLID_8_" d="M563.9,240.7c1.8,0,3.5-0.7,4.8-2s2-3,2-4.8c0-1.8-0.7-3.5-2-4.8c-1.3-1.3-3-2-4.8-2c-1.8,0-3.5,0.7-4.8,2
		c-1.3,1.3-2,3-2,4.8c0,1.8,0.7,3.5,2,4.8C560.4,240,562.1,240.7,563.9,240.7z"/>
	<path id="XMLID_9_" d="M612.7,321.6c1.8,0,3.5-0.7,4.8-2s2-3,2-4.8c0-1.8-0.7-3.5-2-4.8s-3-2-4.8-2c-1.8,0-3.5,0.7-4.8,2
		s-2,3-2,4.8c0,1.8,0.7,3.5,2,4.8C609.2,320.9,611,321.6,612.7,321.6z"/>
	<path id="XMLID_12_" d="M932.2,295.9c1.8,0,3.5-0.7,4.8-2s2-3,2-4.8c0-1.8-0.7-3.5-2-4.8s-3-2-4.8-2s-3.5,0.7-4.8,2
		c-1.3,1.3-2,3-2,4.8c0,1.8,0.7,3.5,2,4.8C928.7,295.1,930.4,295.9,932.2,295.9z"/>
	<path id="XMLID_14_" d="M1076.4,278.3c1.8,0,3.5-0.7,4.8-2c1.3-1.3,2-3,2-4.8c0-1.8-0.7-3.5-2-4.8c-1.3-1.3-3-2-4.8-2
		c-1.8,0-3.5,0.7-4.8,2s-2,3-2,4.8c0,1.8,0.7,3.5,2,4.8C1072.9,277.5,1074.6,278.3,1076.4,278.3z"/>
	<path id="XMLID_17_" d="M790.7,328.2c1.8,0,3.5-0.7,4.8-2c1.3-1.3,2-3,2-4.8c0-1.8-0.7-3.5-2-4.8c-1.3-1.3-3-2-4.8-2
		s-3.5,0.7-4.8,2s-2,3-2,4.8c0,1.8,0.7,3.5,2,4.8C787.2,327.5,789,328.2,790.7,328.2z"/>
	<path id="XMLID_18_" d="M1189.6,326.9c1.8,0,3.5-0.7,4.8-2s2-3,2-4.8c0-1.8-0.7-3.5-2-4.8s-3-2-4.8-2s-3.5,0.7-4.8,2s-2,3-2,4.8
		c0,1.8,0.7,3.5,2,4.8C1186.1,326.1,1187.8,326.9,1189.6,326.9z"/>
	<path id="XMLID_19_" d="M1154,256c1.8,0,3.5-0.7,4.8-2s2-3,2-4.8c0-1.8-0.7-3.5-2-4.8c-1.3-1.3-3-2-4.8-2c-1.8,0-3.5,0.7-4.8,2
		c-1.3,1.3-2,3-2,4.8c0,1.8,0.7,3.5,2,4.8C1150.5,255.3,1152.2,256,1154,256z"/>
	<path id="XMLID_16_" d="M1108.5,202c1.8,0,3.5-0.7,4.8-2s2-3,2-4.8c0-1.8-0.7-3.5-2-4.8s-3-2-4.8-2s-3.5,0.7-4.8,2s-2,3-2,4.8
		c0,1.8,0.7,3.5,2,4.8C1105,201.3,1106.8,202,1108.5,202z"/>
	<path id="XMLID_13_" d="M1031.8,202c1.8,0,3.5-0.7,4.8-2s2-3,2-4.8c0-1.8-0.7-3.5-2-4.8s-3-2-4.8-2c-1.8,0-3.5,0.7-4.8,2
		s-2,3-2,4.8c0,1.8,0.7,3.5,2,4.8C1028.3,201.3,1030.1,202,1031.8,202z"/>
	<path id="XMLID_10_" d="M743.9,289.1c1.8,0,3.5-0.7,4.8-2c1.3-1.3,2-3,2-4.8c0-1.8-0.7-3.5-2-4.8s-3-2-4.8-2s-3.5,0.7-4.8,2
		s-2,3-2,4.8c0,1.8,0.7,3.5,2,4.8C740.4,288.4,742.1,289.1,743.9,289.1z"/>
	<path id="XMLID_11_" d="M838.1,199c1.8,0,3.5-0.7,4.8-2s2-3,2-4.8c0-1.8-0.7-3.5-2-4.8s-3-2-4.8-2s-3.5,0.7-4.8,2
		c-1.3,1.3-2,3-2,4.8c0,1.8,0.7,3.5,2,4.8C834.5,198.2,836.3,199,838.1,199z"/>
	<path id="XMLID_26_" d="M843.2,339.2c0.5,2.3,1.9,4.4,3.9,5.8c2,1.3,4.5,1.8,6.8,1.3c2.3-0.5,4.4-1.9,5.8-3.9
		c1.3-2,1.8-4.5,1.3-6.8c-0.5-2.3-1.9-4.4-3.9-5.8c-2-1.3-4.5-1.8-6.8-1.3c-2.4,0.5-4.5,1.9-5.8,3.9
		C843.2,334.4,842.8,336.9,843.2,339.2z"/>
</g>
<g id="Capa_1">
	<g id="XMLID_629_">
		<ellipse id="XMLID_494_" class="st1" cx="258" cy="261.2" rx="150.3" ry="150.3"/>
		<g id="XMLID_2843_">
			<circle id="XMLID_2844_" class="st0" cx="97.8" cy="421.5" r="26.7"/>
		</g>
		<g id="XMLID_2841_">
			<circle id="XMLID_2842_" class="st0" cx="97.8" cy="421.5" r="26.7"/>
		</g>
		<g>
			<circle id="XMLID_2830_" class="st0" cx="258.1" cy="472.6" r="22.9"/>
			<circle id="XMLID_1797_" class="st0" cx="258.1" cy="472.6" r="22.9"/>
			<ellipse id="XMLID_1768_" class="st0" cx="258.1" cy="44.2" rx="28.5" ry="28.5"/>
			<ellipse id="XMLID_1614_" class="st0" cx="258.1" cy="44.2" rx="28.5" ry="28.5"/>
			
				<ellipse id="XMLID_1822_" transform="matrix(0.23 -0.9732 0.9732 0.23 -218.3602 246.5933)" class="st0" cx="46.7" cy="261.3" rx="22.9" ry="22.9"/>
			
				<ellipse id="XMLID_1821_" transform="matrix(0.23 -0.9732 0.9732 0.23 -218.3602 246.5933)" class="st0" cx="46.7" cy="261.3" rx="22.9" ry="22.9"/>
			
				<ellipse id="XMLID_1798_" transform="matrix(0.7071 -0.7071 0.7071 0.7071 -47.2235 408.4571)" class="st0" cx="469.4" cy="261.2" rx="22.9" ry="22.9"/>
			
				<ellipse id="XMLID_1796_" transform="matrix(0.7071 -0.7071 0.7071 0.7071 -47.2235 408.4571)" class="st0" cx="469.4" cy="261.2" rx="22.9" ry="22.9"/>
		</g>
		<g id="XMLID_1788_">
			<ellipse id="XMLID_1791_" class="st0" cx="408.3" cy="411.6" rx="26.7" ry="26.7"/>
		</g>
		<g id="XMLID_1786_">
			<ellipse id="XMLID_1787_" class="st0" cx="408.3" cy="411.6" rx="26.7" ry="26.7"/>
		</g>
		<g id="XMLID_179_">
			<circle id="XMLID_181_" class="st0" cx="189.1" cy="261.2" r="26.7"/>
		</g>
		<g id="XMLID_177_">
			<circle id="XMLID_178_" class="st0" cx="189.1" cy="261.2" r="26.7"/>
		</g>
		<g id="XMLID_204_">
			<ellipse id="XMLID_207_" class="st0" cx="284.9" cy="207.9" rx="26.7" ry="26.7"/>
		</g>
		<g id="XMLID_185_">
			<ellipse id="XMLID_186_" class="st0" cx="284.9" cy="207.9" rx="26.7" ry="26.7"/>
		</g>
		<g id="XMLID_212_">
			<circle id="XMLID_213_" class="st0" cx="274" cy="330.2" r="26.7"/>
		</g>
		<g id="XMLID_210_">
			<circle id="XMLID_211_" class="st0" cx="274" cy="330.2" r="26.7"/>
		</g>
		<g id="XMLID_1843_">
			<circle id="XMLID_1844_" class="st0" cx="106.9" cy="110" r="26.7"/>
		</g>
		<g id="XMLID_1833_">
			<circle id="XMLID_1842_" class="st0" cx="106.9" cy="110" r="26.7"/>
		</g>
		<g id="XMLID_1545_">
			<g id="XMLID_1828_">
				
					<ellipse id="XMLID_1829_" transform="matrix(0.9238 -0.3829 0.3829 0.9238 -4.3817 169.4662)" class="st0" cx="423.5" cy="95.7" rx="26.7" ry="26.7"/>
			</g>
			<g id="XMLID_1826_">
				
					<ellipse id="XMLID_1827_" transform="matrix(0.9238 -0.3829 0.3829 0.9238 -4.3817 169.4662)" class="st0" cx="423.5" cy="95.7" rx="26.7" ry="26.7"/>
			</g>
		</g>
		<path id="XMLID_1043_" d="M469.5,225.7c-15.1,0-28,9.5-33.1,22.9h-15.8c-1.4-18-5.7-35.4-12.8-52c-2.8-6.4-10.2-9.3-16.6-6.6
			c-6.4,2.8-9.3,10.2-6.6,16.6c7.5,17.2,11.2,35.6,11.2,54.6c0,33.4-12,64.1-31.9,88l-7.9-7.9c-4.9-4.9-12.9-4.9-17.9,0
			c-4.9,4.9-4.9,12.9,0,17.9l7.9,7.9c-23.9,19.9-54.6,31.9-88,31.9s-64.1-12-88-31.9l1.2-1.2c4.9-4.9,4.9-12.9,0-17.9
			c-4.9-4.9-12.9-4.9-17.9,0l-1.2,1.2c-19.9-23.9-31.9-54.6-31.9-88s12-64.1,31.9-88l10.4,10.4c2.5,2.5,5.7,3.7,8.9,3.7
			c3.2,0,6.5-1.2,8.9-3.7c4.9-4.9,4.9-12.9,0-17.9l-10.4-10.4c23.9-19.9,54.6-31.9,88-31.9c18.8,0,36.9,3.7,54,11
			c6.4,2.7,13.8-0.2,16.6-6.7c2.7-6.4-0.2-13.8-6.7-16.6c-16.4-7-33.6-11.2-51.3-12.6V83.3c16.5-5.3,28.5-20.9,28.5-39.1
			c0-22.7-18.5-41.1-41.1-41.1C235.4,3,217,21.5,217,44.1c0,18.3,12,33.8,28.5,39.1v15.4c-35.5,2.7-67.8,16.9-93.3,38.7l-10-10
			c2.6-5.2,4.1-11.1,4.1-17.4c0-21.7-17.6-39.3-39.3-39.3c-21.7,0-39.3,17.6-39.3,39.3s17.6,39.3,39.3,39.3c6.2,0,12.1-1.5,17.4-4.1
			l10,10c-21.9,25.5-36,57.8-38.7,93.3H79.8c-5.1-13.3-18-22.9-33.1-22.9c-19.6,0-35.5,15.9-35.5,35.5s15.9,35.5,35.5,35.5
			c15.1,0,28-9.5,33.1-22.9h15.8c2.7,35.5,16.9,67.8,38.7,93.3l-19.2,19.2c-5.2-2.6-11.1-4.1-17.4-4.1c-21.7,0-39.3,17.6-39.3,39.3
			s17.6,39.3,39.3,39.3s39.3-17.6,39.3-39.3c0-6.2-1.5-12.1-4.1-17.4l19.2-19.2c25.5,21.9,57.8,36,93.3,38.7v15.8
			c-13.3,5.1-22.9,18-22.9,33.1c0,19.6,15.9,35.5,35.5,35.5c19.6,0,35.5-15.9,35.5-35.5c0-15.1-9.5-28-22.9-33.1v-15.8
			c35.5-2.7,67.8-16.9,93.3-38.7l9.2,9.2c-2.6,5.2-4.1,11.1-4.1,17.4c0,21.7,17.6,39.3,39.3,39.3s39.3-17.6,39.3-39.3
			c0-21.7-17.6-39.3-39.3-39.3c-6.2,0-12.1,1.5-17.4,4.1l-9.2-9.2c21.9-25.5,36-57.8,38.7-93.3h15.8c5.1,13.3,18,22.9,33.2,22.9
			c19.6,0,35.5-15.9,35.5-35.5C505,241.6,489.1,225.7,469.5,225.7L469.5,225.7z M258.1,28.3c8.8,0,15.9,7.1,15.9,15.9
			S266.9,60,258.1,60c-8.8,0-15.9-7.1-15.9-15.9S249.4,28.3,258.1,28.3L258.1,28.3z M106.9,124.1c-7.7,0-14-6.3-14-14s6.3-14,14-14
			s14,6.3,14,14S114.7,124.1,106.9,124.1z M46.7,271.4c-5.6,0-10.2-4.6-10.2-10.2c0-5.6,4.6-10.2,10.2-10.2s10.2,4.6,10.2,10.2
			C56.9,266.8,52.3,271.4,46.7,271.4z M97.8,435.6c-7.7,0-14-6.3-14-14s6.3-14,14-14s14,6.3,14,14
			C111.8,429.3,105.5,435.6,97.8,435.6z M258.1,482.8c-5.6,0-10.2-4.6-10.2-10.2s4.6-10.2,10.2-10.2c5.6,0,10.2,4.6,10.2,10.2
			S263.8,482.8,258.1,482.8L258.1,482.8z M408.5,397.5c7.7,0,14,6.3,14,14c0,7.7-6.3,14-14,14s-14-6.3-14-14
			C394.4,403.8,400.7,397.5,408.5,397.5z M469.5,271.4c-5.6,0-10.2-4.6-10.2-10.2c0-5.6,4.6-10.2,10.2-10.2
			c5.6,0,10.2,4.6,10.2,10.2C479.8,266.8,475.2,271.4,469.5,271.4z"/>
		<path id="XMLID_1052_" d="M149.8,261.2c0,21.7,17.6,39.3,39.3,39.3s39.3-17.6,39.3-39.3s-17.6-39.3-39.3-39.3
			S149.8,239.5,149.8,261.2z M203.1,261.2c0,7.7-6.3,14-14,14s-14-6.3-14-14s6.3-14,14-14S203.1,253.5,203.1,261.2z"/>
		<path id="XMLID_1055_" d="M284.9,168.6c-21.7,0-39.3,17.6-39.3,39.3c0,21.7,17.6,39.3,39.3,39.3c21.7,0,39.3-17.6,39.3-39.3
			S306.6,168.6,284.9,168.6z M284.9,221.9c-7.7,0-14-6.3-14-14c0-7.7,6.3-14,14-14c7.7,0,14,6.3,14,14
			C299,215.6,292.7,221.9,284.9,221.9z"/>
		<path id="XMLID_1058_" d="M274,290.9c-21.7,0-39.3,17.6-39.3,39.3c0,21.7,17.6,39.3,39.3,39.3s39.3-17.6,39.3-39.3
			C313.3,308.6,295.7,290.9,274,290.9z M274,344.3c-7.7,0-14-6.3-14-14c0-7.7,6.3-14,14-14c7.7,0,14,6.3,14,14
			C288.1,338,281.8,344.3,274,344.3z"/>
		<path id="XMLID_1061_" d="M423.4,135.2c21.7,0,39.3-17.6,39.3-39.3s-17.6-39.3-39.3-39.3c-21.7,0-39.3,17.6-39.3,39.3
			S401.8,135.2,423.4,135.2z M423.4,81.8c7.7,0,14,6.3,14,14s-6.3,14-14,14c-7.7,0-14-6.3-14-14C409.4,88.1,415.7,81.8,423.4,81.8z"
			/>
		<path id="XMLID_1062_" d="M364.2,167.3c3.3,0,6.6-1.4,8.9-3.7s3.7-5.6,3.7-8.9c0-3.3-1.4-6.6-3.7-8.9c-2.3-2.3-5.6-3.7-8.9-3.7
			c-3.3,0-6.6,1.4-8.9,3.7c-2.3,2.3-3.7,5.6-3.7,8.9c0,3.3,1.4,6.6,3.7,8.9C357.6,166,360.9,167.3,364.2,167.3z"/>
		<g id="XMLID_3_">
			<g id="XMLID_6_">
				<ellipse id="XMLID_7_" class="st0" cx="437.2" cy="337.1" rx="10" ry="10"/>
			</g>
			<g id="XMLID_4_">
				<ellipse id="XMLID_5_" class="st0" cx="437.2" cy="337.1" rx="10" ry="10"/>
			</g>
		</g>
		<path id="XMLID_2_" d="M423,341.1c2.2,7.8,10.4,12.4,18.2,10.2c7.8-2.2,12.4-10.4,10.2-18.2s-10.4-12.4-18.2-10.2
			S420.7,333.3,423,341.1z M442.2,335.6c0.8,2.8-0.8,5.7-3.6,6.5c-2.8,0.8-5.7-0.8-6.5-3.6s0.8-5.7,3.6-6.5
			C438.5,331.2,441.5,332.8,442.2,335.6z"/>
		<path id="XMLID_1_" d="M405.3,323c0.3,1.2,1.2,2.2,2.3,2.8c1.1,0.6,2.4,0.8,3.6,0.4c1.2-0.3,2.2-1.2,2.8-2.3
			c0.6-1.1,0.8-2.4,0.4-3.6c-0.3-1.2-1.2-2.2-2.3-2.8c-1.1-0.6-2.4-0.8-3.6-0.4c-1.2,0.3-2.2,1.2-2.9,2.3
			C405.1,320.4,404.9,321.8,405.3,323z"/>
	</g>
</g>
</svg>
